<svg width="99" height="70" viewBox="0 0 99 70" fill="none" xmlns="http://www.w3.org/2000/svg">
<path fill-rule="evenodd" clip-rule="evenodd" d="M49.6332 0.280946L49.3166 0.119141L48.9992 0.279336L1.2718 24.3681L0 25.01L1.28524 25.6245L21.7661 35.4175V54.7854V55.2196L22.1551 55.4125L49.0018 68.7248L49.3128 68.879L49.6238 68.7248L65.914 60.6471V69.9994H67.314V59.9529L76.4705 55.4125L76.8595 55.2196V54.7854V35.2544L96.7506 25.623L98.0167 25.0099L96.7641 24.3697L49.6332 0.280946ZM75.4595 35.9322L67.314 39.8763V58.3902L75.4595 54.3512V35.9322ZM67.314 38.3208V32.5984V32.1707L66.9335 31.9756L49.6323 23.1008L48.9933 24.3464L65.914 33.026V38.9987L49.3127 47.0371L23.1661 34.5351V34.5001H23.093L3.17441 24.976L49.3127 1.68936L94.8743 24.9761L67.314 38.3208ZM23.1661 36.0869L49.0127 48.4455L49.3166 48.5908L49.6197 48.444L65.914 40.5542V59.0844L49.3128 67.3163L23.1661 54.3512V36.0869Z" fill="#0536FC"/>
</svg>
