<svg width="20" height="20" viewBox="0 0 20 20" fill="none" xmlns="http://www.w3.org/2000/svg">
<path d="M16.631 0.0292969H3.3262C2.44404 0.0292969 1.59801 0.379735 0.974222 1.00352C0.350438 1.6273 0 2.47334 0 3.3555L0 16.6603C0 17.5425 0.350438 18.3885 0.974222 19.0123C1.59801 19.6361 2.44404 19.9865 3.3262 19.9865H16.631C17.5132 19.9865 18.3592 19.6361 18.983 19.0123C19.6068 18.3885 19.9572 17.5425 19.9572 16.6603V3.3555C19.9572 2.47334 19.6068 1.6273 18.983 1.00352C18.3592 0.379735 17.5132 0.0292969 16.631 0.0292969V0.0292969ZM18.2941 16.6603C18.2941 17.1014 18.1189 17.5244 17.807 17.8363C17.4951 18.1482 17.0721 18.3234 16.631 18.3234H3.3262C2.88512 18.3234 2.4621 18.1482 2.15021 17.8363C1.83832 17.5244 1.6631 17.1014 1.6631 16.6603V3.3555C1.6631 2.91442 1.83832 2.4914 2.15021 2.17951C2.4621 1.86762 2.88512 1.6924 3.3262 1.6924H16.631C17.0721 1.6924 17.4951 1.86762 17.807 2.17951C18.1189 2.4914 18.2941 2.91442 18.2941 3.3555V16.6603Z" fill="white"/>
<path d="M9.97905 5.01855C8.99226 5.01855 8.02763 5.31117 7.20714 5.8594C6.38666 6.40764 5.74716 7.18686 5.36954 8.09853C4.99191 9.01021 4.8931 10.0134 5.08562 10.9812C5.27813 11.9491 5.75331 12.8381 6.45108 13.5358C7.14885 14.2336 8.03786 14.7088 9.00569 14.9013C9.97352 15.0938 10.9767 14.995 11.8884 14.6174C12.8001 14.2397 13.5793 13.6003 14.1275 12.7798C14.6757 11.9593 14.9684 10.9946 14.9684 10.0079C14.9684 8.68461 14.4427 7.41556 13.507 6.47989C12.5713 5.54421 11.3023 5.01855 9.97905 5.01855ZM9.97905 13.3341C9.32119 13.3341 8.6781 13.139 8.13111 12.7735C7.58412 12.408 7.15779 11.8885 6.90604 11.2807C6.65429 10.673 6.58842 10.0042 6.71676 9.35895C6.8451 8.71373 7.16189 8.12106 7.62707 7.65588C8.09225 7.1907 8.68492 6.87391 9.33014 6.74557C9.97536 6.61723 10.6442 6.6831 11.2519 6.93485C11.8597 7.1866 12.3792 7.61293 12.7447 8.15992C13.1102 8.70691 13.3053 9.35 13.3053 10.0079C13.3053 10.89 12.9548 11.7361 12.331 12.3598C11.7072 12.9836 10.8612 13.3341 9.97905 13.3341Z" fill="white"/>
<path d="M15.3833 5.85012C16.0722 5.85012 16.6306 5.29167 16.6306 4.60279C16.6306 3.91392 16.0722 3.35547 15.3833 3.35547C14.6944 3.35547 14.136 3.91392 14.136 4.60279C14.136 5.29167 14.6944 5.85012 15.3833 5.85012Z" fill="white"/>
</svg>
