<svg width="70" height="70" viewBox="0 0 70 70" fill="none" xmlns="http://www.w3.org/2000/svg">
<mask id="path-1-inside-1_1_78" fill="white">
<path fill-rule="evenodd" clip-rule="evenodd" d="M1.9799 35L34.3008 2.67912V67.3209L1.9799 35ZM51.1962 51.8239L35.7008 67.3193V36.3285L51.1962 51.8239ZM53.1761 51.8239L69.01 35.99L70 35L69.01 34.0101L35.9899 0.98995L35 0L34.01 0.989951L0.989949 34.0101L0 35L0.989949 35.99L34.01 69.01L35 70L35.9899 69.0101L52.1861 52.8139L63.1838 63.8116L64.1738 62.8216L53.1761 51.8239ZM52.1861 50.834L35.7008 34.3486V2.68068L68.0201 35L52.1861 50.834Z"/>
</mask>
<path fill-rule="evenodd" clip-rule="evenodd" d="M1.9799 35L34.3008 2.67912V67.3209L1.9799 35ZM51.1962 51.8239L35.7008 67.3193V36.3285L51.1962 51.8239ZM53.1761 51.8239L69.01 35.99L70 35L69.01 34.0101L35.9899 0.98995L35 0L34.01 0.989951L0.989949 34.0101L0 35L0.989949 35.99L34.01 69.01L35 70L35.9899 69.0101L52.1861 52.8139L63.1838 63.8116L64.1738 62.8216L53.1761 51.8239ZM52.1861 50.834L35.7008 34.3486V2.68068L68.0201 35L52.1861 50.834Z" fill="black"/>
<path d="M34.3008 2.67912H35.9008V-1.18362L33.1694 1.54775L34.3008 2.67912ZM1.9799 35L0.848528 33.8686L-0.282843 35L0.848528 36.1314L1.9799 35ZM34.3008 67.3209L33.1694 68.4523L35.9008 71.1836V67.3209H34.3008ZM35.7008 67.3193H34.1008V71.1821L36.8322 68.4507L35.7008 67.3193ZM51.1962 51.8239L52.3275 52.9553L53.4589 51.8239L52.3275 50.6926L51.1962 51.8239ZM35.7008 36.3285L36.8322 35.1972L34.1008 32.4658V36.3285H35.7008ZM53.1761 51.8239L52.0447 50.6926L50.9133 51.8239L52.0447 52.9553L53.1761 51.8239ZM70 35L71.1314 36.1314L72.2627 35L71.1314 33.8686L70 35ZM69.01 34.0101L67.8787 35.1414L69.01 34.0101ZM35.9899 0.98995L34.8586 2.12132V2.12132L35.9899 0.98995ZM35 0L36.1314 -1.13137L35 -2.26274L33.8686 -1.13137L35 0ZM34.01 0.989951L32.8787 -0.141421V-0.14142L34.01 0.989951ZM0.989949 34.0101L2.12132 35.1414H2.12132L0.989949 34.0101ZM0 35L-1.13137 33.8686L-2.26274 35L-1.13137 36.1314L0 35ZM0.989949 35.99L2.12132 34.8586L2.12132 34.8586L0.989949 35.99ZM34.01 69.01L32.8787 70.1414L34.01 69.01ZM35 70L33.8686 71.1314L35 72.2627L36.1314 71.1314L35 70ZM35.9899 69.0101L37.1213 70.1414V70.1414L35.9899 69.0101ZM52.1861 52.8139L53.3175 51.6825L52.1861 50.5511L51.0548 51.6825L52.1861 52.8139ZM63.1838 63.8116L62.0525 64.9429L63.1838 66.0743L64.3152 64.9429L63.1838 63.8116ZM64.1738 62.8216L65.3051 63.953L66.4365 62.8216L65.3051 61.6903L64.1738 62.8216ZM35.7008 34.3486H34.1008V35.0114L34.5694 35.48L35.7008 34.3486ZM52.1861 50.834L51.0548 51.9654L52.1861 53.0967L53.3175 51.9654L52.1861 50.834ZM35.7008 2.68068L36.8322 1.54931L34.1008 -1.18206V2.68068H35.7008ZM68.0201 35L69.1515 36.1314L70.2828 35L69.1515 33.8686L68.0201 35ZM33.1694 1.54775L0.848528 33.8686L3.11127 36.1314L35.4322 3.81049L33.1694 1.54775ZM35.9008 67.3209V2.67912H32.7008V67.3209H35.9008ZM0.848528 36.1314L33.1694 68.4523L35.4322 66.1895L3.11127 33.8686L0.848528 36.1314ZM36.8322 68.4507L52.3275 52.9553L50.0648 50.6926L34.5694 66.188L36.8322 68.4507ZM34.1008 36.3285V67.3193H37.3008V36.3285H34.1008ZM52.3275 50.6926L36.8322 35.1972L34.5694 37.4599L50.0648 52.9553L52.3275 50.6926ZM67.8787 34.8586L52.0447 50.6926L54.3074 52.9553L70.1414 37.1213L67.8787 34.8586ZM68.8686 33.8686L67.8787 34.8586L70.1414 37.1213L71.1314 36.1314L68.8686 33.8686ZM67.8787 35.1414L68.8686 36.1314L71.1314 33.8686L70.1414 32.8787L67.8787 35.1414ZM34.8586 2.12132L67.8787 35.1414L70.1414 32.8787L37.1213 -0.141421L34.8586 2.12132ZM33.8686 1.13137L34.8586 2.12132L37.1213 -0.141421L36.1314 -1.13137L33.8686 1.13137ZM35.1414 2.12132L36.1314 1.13137L33.8686 -1.13137L32.8787 -0.141421L35.1414 2.12132ZM2.12132 35.1414L35.1414 2.12132L32.8787 -0.14142L-0.141421 32.8787L2.12132 35.1414ZM1.13137 36.1314L2.12132 35.1414L-0.141421 32.8787L-1.13137 33.8686L1.13137 36.1314ZM2.12132 34.8586L1.13137 33.8686L-1.13137 36.1314L-0.141421 37.1213L2.12132 34.8586ZM35.1414 67.8787L2.12132 34.8586L-0.141421 37.1213L32.8787 70.1414L35.1414 67.8787ZM36.1314 68.8686L35.1414 67.8787L32.8787 70.1414L33.8686 71.1314L36.1314 68.8686ZM34.8586 67.8787L33.8686 68.8686L36.1314 71.1314L37.1213 70.1414L34.8586 67.8787ZM51.0548 51.6825L34.8586 67.8787L37.1213 70.1414L53.3175 53.9453L51.0548 51.6825ZM64.3152 62.6802L53.3175 51.6825L51.0548 53.9453L62.0525 64.9429L64.3152 62.6802ZM63.0424 61.6903L62.0525 62.6802L64.3152 64.9429L65.3051 63.953L63.0424 61.6903ZM52.0447 52.9553L63.0424 63.953L65.3051 61.6903L54.3074 50.6926L52.0447 52.9553ZM34.5694 35.48L51.0548 51.9654L53.3175 49.7026L36.8322 33.2173L34.5694 35.48ZM34.1008 2.68068V34.3486H37.3008V2.68068H34.1008ZM69.1515 33.8686L36.8322 1.54931L34.5694 3.81205L66.8887 36.1314L69.1515 33.8686ZM53.3175 51.9654L69.1515 36.1314L66.8887 33.8686L51.0548 49.7026L53.3175 51.9654Z" fill="#0536FC" mask="url(#path-1-inside-1_1_78)"/>
</svg>
